<?xml version="1.0" encoding="utf-8"?>
<!-- Generator: Adobe Illustrator 19.0.0, SVG Export Plug-In . SVG Version: 6.00 Build 0)  -->
<svg version="1.1"
	 id="svg2989" xmlns:dc="http://purl.org/dc/elements/1.1/" xmlns:sodipodi="http://sodipodi.sourceforge.net/DTD/sodipodi-0.dtd" xmlns:cc="http://creativecommons.org/ns#" xmlns:rdf="http://www.w3.org/1999/02/22-rdf-syntax-ns#" xmlns:inkscape="http://www.inkscape.org/namespaces/inkscape" xmlns:svg="http://www.w3.org/2000/svg" inkscape:version="0.48.3.1 r9886" sodipodi:docname="shopping_cart_font_awesome.svg"
	 xmlns="http://www.w3.org/2000/svg" xmlns:xlink="http://www.w3.org/1999/xlink" x="0px" y="0px" viewBox="0 0 1200 200"
	 style="enable-background:new 0 0 1200 200;" xml:space="preserve">
<style type="text/css">
	.st0{clip-path:url(#SVGID_2_);}
	.st1{fill:#FFFFFF;}
	.st2{fill:none;}
</style>
<g>
	
		<sodipodi:namedview  inkscape:cy="896" gridtolerance="10" showgrid="false" pagecolor="#ffffff" id="namedview2995" guidetolerance="10" borderopacity="1" bordercolor="#666666" objecttolerance="10" inkscape:zoom="0.13169643" inkscape:cx="896" inkscape:current-layer="svg2989" inkscape:window-maximized="0" inkscape:window-width="640" inkscape:window-x="0" inkscape:window-y="25" inkscape:pageopacity="0" inkscape:window-height="480" inkscape:pageshadow="2">
		</sodipodi:namedview>
	<g id="g2991" transform="matrix(1,0,0,-1,68.338983,1209.4915)">
		<path id="path2993" inkscape:connector-curvature="0" d="M389.1,1090.1c0-2.1-0.8-3.9-2.3-5.4s-3.3-2.3-5.4-2.3
			c-2.1,0-3.9,0.8-5.4,2.3c-1.5,1.5-2.3,3.3-2.3,5.4s0.8,3.9,2.3,5.4c1.5,1.5,3.3,2.3,5.4,2.3c2.1,0,3.9-0.8,5.4-2.3
			S389.1,1092.3,389.1,1090.1z M442.9,1090.1c0-2.1-0.8-3.9-2.3-5.4s-3.3-2.3-5.4-2.3c-2.1,0-3.9,0.8-5.4,2.3s-2.3,3.3-2.3,5.4
			s0.8,3.9,2.3,5.4s3.3,2.3,5.4,2.3c2.1,0,3.9-0.8,5.4-2.3S442.9,1092.3,442.9,1090.1z M450.6,1155.5v-30.7c0-1-0.3-1.8-1-2.6
			c-0.6-0.7-1.5-1.2-2.5-1.3l-62.7-7.3c0-0.3,0.1-0.7,0.3-1.3c0.1-0.6,0.3-1.1,0.4-1.6c0.1-0.5,0.2-0.9,0.2-1.3
			c0-0.6-0.5-1.9-1.4-3.8H439c1,0,1.9-0.4,2.7-1.1c0.8-0.8,1.1-1.7,1.1-2.7c0-1-0.4-1.9-1.1-2.7c-0.8-0.8-1.7-1.1-2.7-1.1h-61.5
			c-1,0-1.9,0.4-2.7,1.1c-0.8,0.8-1.1,1.7-1.1,2.7c0,0.6,0.2,1.4,0.7,2.4c0.4,1,1,2.2,1.8,3.6c0.7,1.4,1.2,2.1,1.2,2.3l-10.6,49.4
			h-12.2c-1,0-1.9,0.4-2.7,1.1c-0.8,0.8-1.1,1.7-1.1,2.7c0,1,0.4,1.9,1.1,2.7c0.8,0.8,1.7,1.1,2.7,1.1h15.4c0.6,0,1.2-0.1,1.7-0.4
			c0.5-0.3,0.9-0.6,1.2-0.9c0.3-0.4,0.6-0.9,0.8-1.5c0.2-0.6,0.4-1.2,0.5-1.6c0.1-0.4,0.2-1,0.3-1.8s0.2-1.3,0.3-1.5h72.1
			c1,0,1.9-0.4,2.7-1.1C450.2,1157.4,450.6,1156.5,450.6,1155.5z"/>
	</g>
</g>
<path d="M777.1,65.3V127h-79.7V65.3H777.1z M704,72v47.8h66.4V72H704z"/>
<path d="M708.4,111.7V76.1h57.9v25.7c0,0-14.3-17-15.1-17c-0.8,0-20.9,23.4-20.9,23.4s-6-4.3-8.4-5.2
	C720.7,103,708.4,111.7,708.4,111.7z M721,80.3c-3.1,0-5.7,2.6-5.7,5.7s2.6,5.7,5.7,5.7c3.1,0,5.7-2.6,5.7-5.7S724.1,80.3,721,80.3z
	"/>
<g>
	<defs>
		<polygon id="SVGID_1_" points="697.4,127 697.4,65.3 777.1,65.3 777.1,35.5 673.8,35.5 673.8,127 		"/>
	</defs>
	<clipPath id="SVGID_2_">
		<use xlink:href="#SVGID_1_"  style="overflow:visible;"/>
	</clipPath>
	<path class="st0" d="M755.3,41.5l11.2,55.9l-72,14.5L683.3,56L755.3,41.5z M690.4,60.8l8.7,43.2l60-12.1l-8.7-43.2L690.4,60.8z"/>
</g>
<g>
	<rect x="183.8" y="41.3" width="15.3" height="15.3"/>
	<rect x="256.7" y="114.2" width="15.3" height="15.3"/>
	<g>
		<g>
			<path d="M190.5,122.8V48h74.9v74.8H190.5z M255.1,112.6V58.2h-54.5v54.5H255.1z"/>
			<path class="st1" d="M264.3,49v72.8h-72.8V49H264.3 M199.7,113.6h56.5V57.2h-56.5V113.6 M266.3,47h-2h-72.8h-2v2v72.8v2h2h72.8h2
				v-2V49V47L266.3,47z M201.7,59.2h52.5v52.5h-52.5V59.2L201.7,59.2z"/>
		</g>
		<g>
			<polygon points="176.3,97.6 193.2,80.6 212.1,99.4 264.5,47 281.5,64 212.1,133.4 			"/>
			<path class="st1" d="M264.5,49.8L278.7,64l-66.6,66.6l-33-33l14.1-14.1l18.9,18.8L264.5,49.8 M264.5,44.2l-2.8,2.8l-49.6,49.6
				l-16.1-16l-2.8-2.8l-2.8,2.8l-14.1,14.1l-2.8,2.8l2.8,2.8l33,33l2.8,2.8l2.8-2.8l66.6-66.6l2.8-2.8l-2.8-2.8L267.4,47L264.5,44.2
				L264.5,44.2z"/>
		</g>
	</g>
</g>
<g>
	<path d="M974.6,69.9v47.6l37.9-7.2V87.2c0-1,0.8-1.7,1.8-1.6l4.7,0.7c0.8,0.1,1.4,0.8,1.4,1.6v26.9c0,0.8-0.5,1.4-1.3,1.6
		l-41.5,8.9c-2,0.4-4.1,0.4-6.1,0l-41-8.6c-0.7-0.2-1.3-0.8-1.3-1.5l-0.7-27.4c0-0.9,0.6-1.6,1.5-1.7l34.9-3.1
		c0.6-0.1,1.1-0.4,1.4-1l5.3-12.8C972.1,67.7,974.6,68.2,974.6,69.9z M928.1,54.4l-10.9,23.4c-0.5,1.1,0.4,2.4,1.6,2.3l41.1-4.2
		c0.6-0.1,1.1-0.4,1.3-1l13.2-29.8l-45.1,8.3C928.7,53.5,928.3,53.9,928.1,54.4z M974.4,45.2l14,30.7c0.2,0.5,0.8,0.9,1.3,0.9
		l41,3.3c1.2,0.1,2.1-1.2,1.6-2.3l-10.7-23.4c-0.2-0.5-0.7-0.8-1.2-0.9L974.4,45.2z"/>
</g>
<g>
	<path d="M435.1,149.2v5.2l3-5.2h2.7l-3.5,6l4.1,5.8h-2.9l-3.4-5v5h-2.4v-11.8H435.1z"/>
	<path d="M449.1,156.3v-7.1h2.4v7.1c0,1.3-0.5,2.4-1.4,3.4c-0.9,0.9-2.1,1.4-3.4,1.4c-1.3,0-2.5-0.5-3.4-1.4
		c-0.9-0.9-1.4-2.1-1.4-3.4v-7.1h2.4v7.1c0,1.3,1.1,2.4,2.4,2.4C448,158.7,449.1,157.6,449.1,156.3z"/>
	<path d="M452.9,157.4v-8.3h4.1c1.1,0,2.1,0.4,2.9,1.2c0.8,0.8,1.2,1.8,1.2,2.9c0,1.2-0.4,2.1-1.2,2.9c-0.8,0.8-1.8,1.2-2.9,1.2
		h-1.8v3.5h-2.4V157.4z M457.1,151.5h-1.8v3.6l1.8,0c1,0,1.8-0.8,1.8-1.8S458,151.5,457.1,151.5z"/>
	<path d="M476.4,150.8c1.2,1.2,1.8,2.6,1.8,4.2c0,1.7-0.6,3.1-1.8,4.2c-1.2,1.2-2.6,1.7-4.2,1.7c-1.7,0-3.1-0.6-4.2-1.7
		c-1.2-1.2-1.8-2.6-1.8-4.2c0-1.6,0.6-3.1,1.8-4.2c1.2-1.2,2.6-1.8,4.2-1.8S475.3,149.7,476.4,150.8z M469.7,152.5
		c-0.7,0.7-1.1,1.6-1.1,2.5c0,1,0.4,1.8,1.1,2.5c0.7,0.7,1.5,1,2.5,1c1,0,1.8-0.3,2.5-1s1.1-1.5,1.1-2.5c0-1-0.4-1.8-1.1-2.5
		c-0.7-0.7-1.5-1.1-2.5-1.1C471.2,151.5,470.4,151.8,469.7,152.5z"/>
	<path d="M485.3,154c0.3,0.1,0.7,0.4,0.9,0.6c0.7,0.7,1.1,1.6,1.1,2.6c0,1-0.4,1.9-1.1,2.6c-0.7,0.7-1.6,1.1-2.6,1.1h-4.4v-11.8h2.5
		h0.8c0.9,0,1.7,0.3,2.3,1c0.6,0.6,0.9,1.4,0.9,2.2C485.8,153,485.5,153.6,485.3,154z M482.5,151.5h-0.9v2.2c0.2,0,0.5,0,0.9-0.1
		c0.6-0.1,1-0.5,1-1.1C483.5,151.9,483.1,151.5,482.5,151.5z M485,157.3c0-0.8-0.6-1.4-1.4-1.5c-0.7,0-1.3,0-2,0v2.9h0.5h1.6
		C484.4,158.7,485,158,485,157.3z"/>
	<path d="M488.3,149.2h3.9c1.3,0,2.4,0.5,3.1,1.2c0.7,0.7,1.1,1.4,1.1,2.7v0.3c0,0.8-0.2,1.5-0.7,2.2c-0.4,0.6-0.7,0.8-1.4,1.1
		l2.7,4.3h-2.9l-3.4-5.2v5.2h-2.4L488.3,149.2z M493.9,153.1c0-0.4-0.2-0.8-0.5-1.1c-0.3-0.3-0.9-0.5-1.5-0.5h-1.3v3.3h0.9v0h0.8
		C493.3,154.8,493.9,154,493.9,153.1z"/>
	<path d="M502.9,148.9l5.4,12h-2.6l-0.8-1.8h-4l-0.8,1.8h-2.6L502.9,148.9z M504,157.1l-1.1-2.5l-1.1,2.5H504z"/>
	<path d="M517.2,149.2l-4.5,9.4h4.5v2.4h-8.3l4.5-9.5h-4.5v-2.4H517.2z"/>
</g>
<g>
	<path d="M669.4,149.2l2.2,5.6l2.2-5.6l2.2,5.6l2.2-5.6h2.6l-4.7,12.1l-2.2-5.9l-2.2,5.9l-4.7-12.1H669.4z"/>
	<path d="M686.4,149.1c1.8,0,3.3,0.8,4.2,1.8l-1.7,1.7c-0.7-0.7-1.6-1.1-2.5-1.1c-1,0-1.8,0.4-2.5,1.1c-0.7,0.7-1.1,1.6-1.1,2.5
		c0,1,0.4,1.8,1.1,2.5c0.7,0.7,1.5,1.1,2.5,1.1c1.5,0,2.7-1,3.2-2.1h-3.4v-2.3h6.1c0.2,2.2-0.6,3.8-1.7,5c-1.2,1.2-2.6,1.8-4.2,1.8
		c-1.7,0-3.1-0.6-4.2-1.8c-1.2-1.2-1.8-2.6-1.8-4.2c0-1.6,0.6-3.1,1.8-4.2C683.3,149.7,684.7,149.1,686.4,149.1L686.4,149.1z"/>
	<path d="M693.4,149.2h3.9c1.3,0,2.4,0.5,3.1,1.2c0.7,0.7,1.1,1.4,1.1,2.7v0.3c0,0.8-0.2,1.5-0.7,2.2c-0.4,0.6-0.7,0.8-1.4,1.1
		l2.7,4.3h-2.9l-3.4-5.2v5.2h-2.4L693.4,149.2z M699,153.1c0-0.4-0.2-0.8-0.5-1.1c-0.3-0.3-0.9-0.5-1.5-0.5h-1.3v3.3h0.9v0h0.8
		C698.3,154.8,699,154,699,153.1z"/>
	<path d="M708,148.9l5.4,12h-2.6l-0.8-1.8h-4l-0.8,1.8h-2.6L708,148.9z M709.1,157.1l-1.1-2.5l-1.1,2.5H709.1z"/>
	<path d="M719.1,156.3V154l0-4.8l2.4,0l0,4.8v2.4c0,1.3-0.5,2.4-1.4,3.4c-0.9,0.9-2,1.4-3.3,1.4h-0.1c-1,0-1.9-0.3-2.7-0.8l1.2-2.1
		c0.4,0.3,0.9,0.5,1.5,0.5h0.1C718,158.7,719.1,157.6,719.1,156.3z"/>
	<path d="M735.2,149.2l-4.5,9.4h4.5v2.4h-8.3l4.5-9.5h-4.5v-2.4H735.2z"/>
	<path d="M739.3,149.2c1.9,0,3.3,0.7,4.3,1.7c1.1,1.1,1.6,2.5,1.6,4.2c0,1.7-0.5,3.1-1.6,4.2c-1.2,1.2-2.6,1.7-4.3,1.7h-3.1v-11.8
		L739.3,149.2L739.3,149.2z M739.3,151.5h-0.8v7.1h0.8c2.1,0,3.5-1.4,3.5-3.5C742.9,153,741.4,151.5,739.3,151.5z"/>
	<path d="M748.9,156.3V154l0-4.8l2.4,0l0,4.8v2.4c0,1.3-0.5,2.4-1.4,3.4c-0.9,0.9-2,1.4-3.3,1.4h-0.1c-1,0-1.9-0.3-2.7-0.8l1.2-2.1
		c0.4,0.3,0.9,0.5,1.5,0.5h0.1C747.9,158.7,748.9,157.6,748.9,156.3z"/>
	<path d="M759.9,149.1v2.4h-4.7v2.4h3.6v2.4h-3.6v2.4h4.7v2.4c0,0-0.3,0.2-0.9,0.6s-0.9,0.8-0.9,1.3c0,0.3,0.2,0.4,0.7,0.3l0.7,0
		l0.3,1.6c0,0-0.2,0-0.5,0c-0.9,0.1-1.7-0.2-2.3-0.6c-0.3-0.3-0.5-0.8-0.5-1.4c0-0.8,0.5-1.4,1-1.8h-4.6v-11.9L759.9,149.1z"/>
	<path d="M766.4,161.1c-1.7,0-3.1-0.6-4.2-1.7c-1.2-1.2-1.8-2.6-1.8-4.2c0-1.6,0.6-3.1,1.8-4.2c1.2-1.2,2.6-1.8,4.2-1.8l0,0
		c1.8,0,3.3,0.8,4.2,1.8l-1.7,1.7c-0.7-0.7-1.6-1.1-2.5-1.1c-1,0-1.8,0.4-2.5,1.1c-0.7,0.7-1.1,1.6-1.1,2.5c0,1,0.4,1.8,1.1,2.5
		c0.7,0.7,1.5,1,2.5,1c1,0,1.8-0.4,2.5-1.1l1.7,1.7C769.7,160.3,768.3,161.1,766.4,161.1z"/>
	<path d="M771.7,149.2h2.4V161h-2.4V149.2z"/>
	<path d="M782.7,149.1v2.4h-4.7v2.4h3.6v2.4h-3.6v2.4h4.7v2.4h-7.1v-11.9H782.7z"/>
</g>
<g>
	<path d="M158.7,149.2l2.2,5.6l2.2-5.6l2.2,5.6l2.2-5.6h2.6l-4.7,12.1l-2.2-5.9l-2.2,5.9l-4.7-12.1H158.7z"/>
	<path d="M173.3,149.2l2.2,4.1l2.2-4.1h2.7l-3.7,6.7v5.1h-2.4v-5.1l-3.7-6.7H173.3z"/>
	<path d="M187.4,154c0.3,0.1,0.7,0.4,0.9,0.6c0.7,0.7,1.1,1.6,1.1,2.6c0,1-0.4,1.9-1.1,2.6c-0.7,0.7-1.6,1.1-2.6,1.1h-4.4v-11.8h2.5
		h0.8c0.9,0,1.7,0.3,2.3,1c0.6,0.6,0.9,1.4,0.9,2.2C187.9,153,187.6,153.6,187.4,154z M184.6,151.5h-0.9v2.2c0.2,0,0.5,0,0.9-0.1
		c0.6-0.1,1-0.5,1-1.1C185.6,151.9,185.1,151.5,184.6,151.5z M187,157.3c0-0.8-0.6-1.4-1.4-1.5c-0.7,0-1.3,0-2,0v2.9h0.5h1.6
		C186.4,158.7,187,158,187,157.3z"/>
	<path d="M190.4,149.2h2.4V161h-2.4V149.2z"/>
	<path d="M201.3,149.1v2.4h-4.7v2.4h3.6v2.4h-3.6v2.4h4.7v2.4h-7.1v-11.9H201.3z"/>
	<path d="M202.4,149.2h3.9c1.3,0,2.4,0.5,3.1,1.2c0.7,0.7,1.1,1.4,1.1,2.7v0.3c0,0.8-0.2,1.5-0.7,2.2c-0.4,0.6-0.7,0.8-1.4,1.1
		l2.7,4.3h-2.9l-3.4-5.2v5.2h-2.4L202.4,149.2z M208,153.1c0-0.4-0.2-0.8-0.5-1.1c-0.3-0.3-0.9-0.5-1.5-0.5h-1.3v3.3h0.9v0h0.8
		C207.3,154.8,208,154,208,153.1z"/>
	<path d="M219.9,149.2l-4.5,9.4h4.5v2.4h-8.3l4.5-9.5h-4.5v-2.4H219.9z"/>
	<path d="M225.3,149.2h3.9c1.3,0,2.4,0.5,3.1,1.2c0.7,0.7,1.1,1.4,1.1,2.7v0.3c0,0.8-0.2,1.5-0.7,2.2c-0.4,0.6-0.7,0.8-1.4,1.1
		l2.7,4.3h-2.9l-3.4-5.2v5.2h-2.4L225.3,149.2z M231,153.1c0-0.4-0.2-0.8-0.5-1.1c-0.3-0.3-0.9-0.5-1.5-0.5h-1.3v3.3h0.9v0h0.8
		C230.3,154.8,231,154,231,153.1z"/>
	<path d="M244.8,150.8c1.2,1.2,1.8,2.6,1.8,4.2c0,1.7-0.6,3.1-1.8,4.2c-1.2,1.2-2.6,1.7-4.2,1.7c-1.7,0-3.1-0.6-4.2-1.7
		c-1.2-1.2-1.8-2.6-1.8-4.2c0-1.6,0.6-3.1,1.8-4.2c1.2-1.2,2.6-1.8,4.2-1.8S243.6,149.7,244.8,150.8z M238,152.5
		c-0.7,0.7-1.1,1.6-1.1,2.5c0,1,0.4,1.8,1.1,2.5c0.7,0.7,1.5,1,2.5,1c1,0,1.8-0.3,2.5-1s1.1-1.5,1.1-2.5c0-1-0.4-1.8-1.1-2.5
		c-0.7-0.7-1.5-1.1-2.5-1.1C239.6,151.5,238.7,151.8,238,152.5z"/>
	<path d="M255.5,149.2l-4.5,9.4h4.5v2.4h-8.3l4.5-9.5h-4.5v-2.4H255.5z"/>
	<path d="M262.3,156.8l5.8-7.9V161h-2.4v-4.9l-3.4,4.7l-3.4-4.7v4.9h-2.4v-12.1L262.3,156.8z"/>
	<path d="M269.5,149.2h2.4V161h-2.4V149.2z"/>
	<path d="M278.3,148.9l5.4,12h-2.6l-0.8-1.8h-4l-0.8,1.8h-2.6L278.3,148.9z M279.4,157.1l-1.1-2.5l-1.1,2.5H279.4z"/>
	<path d="M284.7,149.2h3.9c1.3,0,2.4,0.5,3.1,1.2c0.7,0.7,1.1,1.4,1.1,2.7v0.3c0,0.8-0.2,1.5-0.7,2.2c-0.4,0.6-0.7,0.8-1.4,1.1
		l2.7,4.3h-2.9l-3.4-5.2v5.2h-2.4L284.7,149.2z M290.3,153.1c0-0.4-0.2-0.8-0.5-1.1c-0.3-0.3-0.9-0.5-1.5-0.5h-1.3v3.3h0.9v0h0.8
		C289.7,154.8,290.3,154,290.3,153.1z"/>
</g>
<g>
	<path d="M945.9,149.1c1.8,0,3.3,0.8,4.2,1.8l-1.7,1.7c-0.7-0.7-1.6-1.1-2.5-1.1c-1,0-1.8,0.4-2.5,1.1c-0.7,0.7-1.1,1.6-1.1,2.5
		c0,1,0.4,1.8,1.1,2.5c0.7,0.7,1.5,1.1,2.5,1.1c1.5,0,2.7-1,3.2-2.1h-3.4v-2.3h6.1c0.2,2.2-0.6,3.8-1.7,5c-1.2,1.2-2.6,1.8-4.2,1.8
		c-1.7,0-3.1-0.6-4.2-1.8c-1.2-1.2-1.8-2.6-1.8-4.2c0-1.6,0.6-3.1,1.8-4.2C942.8,149.7,944.2,149.1,945.9,149.1L945.9,149.1z"/>
	<path d="M962.7,150.8c1.2,1.2,1.8,2.6,1.8,4.2c0,1.7-0.6,3.1-1.8,4.2c-1.2,1.2-2.6,1.7-4.2,1.7c-1.7,0-3.1-0.6-4.2-1.7
		c-1.2-1.2-1.8-2.6-1.8-4.2c0-1.6,0.6-3.1,1.8-4.2c1.2-1.2,2.6-1.8,4.2-1.8S961.5,149.7,962.7,150.8z M955.9,152.5
		c-0.7,0.7-1.1,1.6-1.1,2.5c0,1,0.4,1.8,1.1,2.5c0.7,0.7,1.5,1,2.5,1c1,0,1.8-0.3,2.5-1s1.1-1.5,1.1-2.5c0-1-0.4-1.8-1.1-2.5
		c-0.7-0.7-1.5-1.1-2.5-1.1C957.4,151.5,956.6,151.8,955.9,152.5z"/>
	<path d="M972.1,149.2v2.4h-2.9v9.5h-2.4v-9.5h-2.9v-2.4H972.1z"/>
	<path d="M981.7,150.8c1.2,1.2,1.8,2.6,1.8,4.2c0,1.7-0.6,3.1-1.8,4.2c-1.2,1.2-2.6,1.7-4.2,1.7c-1.7,0-3.1-0.6-4.2-1.7
		c-1.2-1.2-1.8-2.6-1.8-4.2c0-1.6,0.6-3.1,1.8-4.2c1.2-1.2,2.6-1.8,4.2-1.8S980.6,149.7,981.7,150.8z M975,152.5
		c-0.7,0.7-1.1,1.6-1.1,2.5c0,1,0.4,1.8,1.1,2.5c0.7,0.7,1.5,1,2.5,1c1,0,1.8-0.3,2.5-1s1.1-1.5,1.1-2.5c0-1-0.4-1.8-1.1-2.5
		c-0.7-0.7-1.5-1.1-2.5-1.1C976.5,151.5,975.7,151.8,975,152.5z"/>
	<path d="M985.8,149.2l2.2,5.6l2.2-5.6l2.2,5.6l2.2-5.6h2.6l-4.7,12.1l-2.2-5.9l-2.2,5.9l-4.7-12.1H985.8z"/>
	<path d="M1005.2,149.1v2.4h-4.7v2.4h3.6v2.4h-3.6v2.4h4.7v2.4h-7.1v-11.9H1005.2z"/>
	<path d="M1006.2,159.8c0-0.8,0.7-1.5,1.5-1.5c0.8,0,1.5,0.7,1.5,1.5c0,0.8-0.7,1.5-1.5,1.5C1006.9,161.3,1006.2,160.7,1006.2,159.8
		z M1006.3,149.2h2.7l-0.4,8.4h-2C1006.6,154.6,1006.4,152.1,1006.3,149.2z"/>
</g>
<path d="M392,80.2l-18-23.6l-2.8,9.7c-13.7-4-29.3-6.4-64.2,14.7c31.8-8.3,48.1-3.3,59.4,0.4c-1.6,5.4-3,10.3-3,10.3L392,80.2z"/>
<path d="M642.3,95.2l-18,23.6l-2.8-9.7c-13.7,4-29.3,6.4-64.2-14.7c31.8,8.3,48.1,3.3,59.4-0.4c-1.6-5.4-3-10.3-3-10.3L642.3,95.2z"
	/>
<path d="M892,80.2l-18-23.6l-2.8,9.7c-13.7-4-29.3-6.4-64.2,14.7c31.8-8.3,48.1-3.3,59.4,0.4c-1.6,5.4-3,10.3-3,10.3L892,80.2z"/>
<rect x="500.5" y="154.5" class="st2" width="2.5" height="0.1"/>
</svg>
