<?xml version="1.0" ?><svg height="24px" version="1.1" viewBox="0 0 24 24" width="24px" xmlns="http://www.w3.org/2000/svg" xmlns:sketch="http://www.bohemiancoding.com/sketch/ns" xmlns:xlink="http://www.w3.org/1999/xlink"><title/><desc/><defs/><g fill="none" fill-rule="evenodd" id="miu" stroke="none" stroke-width="1"><g id="Artboard-1" transform="translate(-719.000000, -299.000000)"><g id="slice" transform="translate(215.000000, 119.000000)"/><path d="M737.875,318.01931 L738.5625,317.963901 C740.513625,317.64613 742,315.998527 742,314.013793 C742,312.26939 740.851875,310.785346 739.248625,310.235923 C739.190875,306.781832 736.288937,304 732.71875,304 C730.143375,304 727.916563,305.447327 726.853,307.550223 C726.34975,307.010146 725.621688,306.670345 724.8125,306.670345 C723.293813,306.670345 722.0625,307.865992 722.0625,309.34069 C722.0625,309.725887 722.146375,310.091724 722.296938,310.422179 C720.935687,311.076414 720,312.438957 720,314.013793 C720,315.998527 721.486375,317.64613 723.4375,317.963901 L724.125,318.01931 L730.931034,318.01931 L731.068965,318 L737.875,318.01931 Z M737.877837,317.019314 L738.401752,316.976905 C739.897527,316.733295 741,315.479948 741,314.013793 C741,312.736522 740.162278,311.606116 738.924439,311.181916 L738.260497,310.954388 L738.248765,310.25264 C738.200183,307.346899 735.745524,305 732.71875,305 C730.579673,305 728.665599,306.182034 727.745361,308.001545 L727.098491,309.280551 L726.121389,308.231946 C725.791103,307.87749 725.320902,307.670345 724.8125,307.670345 C723.839626,307.670345 723.0625,308.424961 723.0625,309.34069 C723.0625,309.574129 723.112001,309.799205 723.206935,310.007565 L723.613136,310.899097 L722.730118,311.323487 C721.675676,311.830265 721,312.865772 721,314.013793 C721,315.479948 722.102473,316.733295 723.517835,316.967133 L724.125,317.01931 L737.877837,317.019314 Z M734,311.5 L732.004517,311.5 L732.004517,316 L730.013184,316 L730.013184,311.5 L728,311.5 L731,308 L734,311.5 Z" fill="#000000" id="cloud-cloud_download-arrow-up-outline-stroke"/></g></g></svg>